<svg width="80" height="80" viewBox="0 0 80 80" fill="none" xmlns="http://www.w3.org/2000/svg">
<path d="M40 11.6667C34.8611 11.6667 30.1215 12.934 25.7812 15.4687C21.441 18.0035 18.0035 21.441 15.4687 25.7812C12.934 30.1215 11.6667 34.8611 11.6667 40C11.6667 45.1389 12.934 49.8785 15.4687 54.2187C18.0035 58.559 21.441 61.9965 25.7812 64.5312C30.1215 67.066 34.8611 68.3333 40 68.3333C45.1389 68.3333 49.8785 67.066 54.2187 64.5312C58.559 61.9965 61.9965 58.559 64.5312 54.2187C67.066 49.8785 68.3333 45.1389 68.3333 40C68.3333 34.8611 67.066 30.1215 64.5312 25.7812C61.9965 21.441 58.559 18.0035 54.2187 15.4687C49.8785 12.934 45.1389 11.6667 40 11.6667ZM80 40C80 47.2569 78.2118 53.9497 74.6354 60.0781C71.059 66.2066 66.2066 71.059 60.0781 74.6354C53.9497 78.2118 47.2569 80 40 80C32.7431 80 26.0503 78.2118 19.9219 74.6354C13.7934 71.059 8.94097 66.2066 5.36458 60.0781C1.78819 53.9497 0 47.2569 0 40C0 32.7431 1.78819 26.0503 5.36458 19.9219C8.94097 13.7934 13.7934 8.94097 19.9219 5.36458C26.0503 1.78819 32.7431 0 40 0C47.2569 0 53.9497 1.78819 60.0781 5.36458C66.2066 8.94097 71.059 13.7934 74.6354 19.9219C78.2118 26.0503 80 32.7431 80 40Z" fill="black"/>
</svg>
